<?xml version="1.0" standalone="no"?>
<svg
  width="600"
  height="600"
  viewBox="0 0 600 600"
  xmlns="http://www.w3.org/2000/svg"
>
  <g transform="translate(300,300)">
    <path d="M94.9,-128.8C124.3,-88.5,150.3,-59.8,160.3,-25C170.3,9.8,164.4,50.6,151.7,101.7C139.1,152.8,119.6,214.1,78.3,239.8C36.9,265.6,-26.3,255.9,-60.5,220.1C-94.7,184.3,-99.7,122.4,-132.2,73C-164.7,23.6,-224.7,-13.3,-228,-48.1C-231.3,-83,-178,-115.8,-130.6,-152.9C-83.1,-190.1,-41.6,-231.5,-4.4,-226.3C32.8,-221.1,65.6,-169.1,94.9,-128.8Z" fill="#2e7b73" />
  </g>
</svg>
  