<?xml version="1.0" standalone="no"?>
<svg
  width="600"
  height="600"
  viewBox="0 0 600 600"
  xmlns="http://www.w3.org/2000/svg"
>
  <g transform="translate(300,300)">
    <path d="M161.4,-192.9C203.3,-157.2,227.2,-100.8,219.5,-52.3C211.9,-3.9,172.6,36.6,143.1,77.8C113.5,119,93.7,161,56.8,188.6C19.8,216.1,-34.2,229.3,-81.9,215.9C-129.6,202.5,-170.9,162.5,-199.8,114.4C-228.8,66.3,-245.4,10,-235.7,-41C-226.1,-92.1,-190.2,-138,-146.5,-173.3C-102.8,-208.6,-51.4,-233.3,4.2,-238.3C59.8,-243.2,119.6,-228.5,161.4,-192.9Z" fill="#2e7b73" />
  </g>
</svg>
  