<svg width="220" height="220" viewBox="0 0 220 220" fill="none" xmlns="http://www.w3.org/2000/svg">
<path d="M220 110C220 137.68 209.565 164.342 190.775 184.668C171.986 204.994 146.225 217.489 118.63 219.661C91.036 221.833 63.6371 213.521 41.8997 196.385C20.1622 179.248 5.68436 154.547 1.35428 127.208C-2.97579 99.8688 3.16026 71.9022 18.5383 48.8873C33.9164 25.8723 57.406 9.50103 84.321 3.03931C111.236 -3.42242 139.598 0.500494 163.748 14.0254C187.899 27.5504 206.063 49.6831 214.616 76.0081L176.89 88.266C171.421 71.4341 159.808 57.2828 144.366 48.6351C128.924 39.9874 110.79 37.4792 93.5812 41.6107C76.3721 45.7423 61.3532 56.2099 51.5206 70.9253C41.6881 85.6408 37.7647 103.522 40.5333 121.002C43.3019 138.483 52.5589 154.277 66.4575 165.233C80.3562 176.19 97.8747 181.504 115.518 180.116C133.162 178.727 149.633 170.738 161.647 157.742C173.66 144.746 180.333 127.698 180.333 110L220 110Z" fill="#2E7B73"/>
</svg>
