<svg width="220" height="220" viewBox="0 0 220 220" fill="none" xmlns="http://www.w3.org/2000/svg">
<path d="M220 110C220 134.708 211.681 158.697 196.385 178.1C181.088 197.504 159.704 211.193 135.679 216.961C111.654 222.729 86.3859 220.24 63.9474 209.896C41.509 199.551 23.2065 181.954 11.9893 159.939C0.772051 137.924 -2.70669 112.773 2.11362 88.5401C6.93392 64.3068 19.7725 42.402 38.5607 26.3554C57.3489 10.3087 80.9924 1.05485 105.681 0.0848068C130.37 -0.885232 154.667 6.48508 174.656 21.0081L151.34 53.0997C138.56 43.8139 123.025 39.1014 107.239 39.7217C91.4529 40.3419 76.3356 46.2587 64.3226 56.5187C52.3097 66.7787 44.1009 80.7843 41.0188 96.2788C37.9368 111.773 40.1611 127.854 47.3332 141.93C54.5054 156.006 66.2077 167.258 80.5546 173.872C94.9015 180.486 111.057 182.077 126.419 178.389C141.78 174.701 155.453 165.949 165.233 153.542C175.014 141.136 180.333 125.798 180.333 110L220 110Z" fill="#2E7B73"/>
</svg>
