<svg width="220" height="220" viewBox="0 0 220 220" fill="none" xmlns="http://www.w3.org/2000/svg">
<path d="M220 110C220 136.191 210.655 161.523 193.645 181.439C176.635 201.355 153.077 214.548 127.208 218.646C101.339 222.743 74.857 217.475 52.5252 203.79C30.1934 190.105 13.4774 168.901 5.38378 143.992C-2.70979 119.082 -1.64974 92.1025 8.37325 67.9048C18.3962 43.7072 36.7244 23.8799 60.061 11.9893C83.3977 0.098663 110.211 -3.07494 135.679 3.03931C161.147 9.15355 183.597 24.1544 198.992 45.3436L166.9 68.6595C157.057 55.1114 142.703 45.5201 126.419 41.6107C110.135 37.7014 92.9908 39.7305 78.0697 47.3332C63.1485 54.9359 51.4297 67.6132 45.0212 83.0849C38.6126 98.5566 37.9348 115.807 43.1097 131.734C48.2847 147.661 58.9727 161.218 73.2513 169.968C87.53 178.718 104.462 182.086 121.002 179.467C137.543 176.847 152.605 168.411 163.481 155.677C174.357 142.943 180.333 126.746 180.333 110L220 110Z" fill="#2E7B73"/>
</svg>
