<svg width="220" height="215" viewBox="0 0 220 215" fill="none" xmlns="http://www.w3.org/2000/svg">
<path d="M220 105C220 125.286 214.39 145.178 203.79 162.475C193.191 179.772 178.014 193.801 159.939 203.011C141.864 212.221 121.593 216.253 101.37 214.661C81.1456 213.069 61.7557 205.916 45.3436 193.992C28.9315 182.068 16.1365 165.837 8.37325 147.095C0.609962 128.353 -1.81922 107.829 1.35428 87.7922C4.52778 67.7555 13.1803 48.9867 26.3553 33.5607C39.5303 18.1348 56.7146 6.65265 76.0081 0.383787L88.266 38.1098C75.93 42.118 64.9426 49.4595 56.5187 59.3227C48.0948 69.1858 42.5624 81.1864 40.5333 93.9976C38.5042 106.809 40.0574 119.932 45.0212 131.915C49.9849 143.899 58.1659 154.276 68.6596 161.9C79.1532 169.524 91.5509 174.098 104.482 175.116C117.413 176.133 130.373 173.555 141.93 167.667C153.487 161.778 163.191 152.808 169.968 141.749C176.746 130.689 180.333 117.971 180.333 105L220 105Z" fill="#2E7B73"/>
</svg>
