<svg width="372" height="132" viewBox="0 0 372 132" fill="none" xmlns="http://www.w3.org/2000/svg">
<g filter="url(#filter0_d)">
<path d="M4.34762 78.448C4.66762 75.248 6.13962 73.168 8.76362 72.208C11.3876 71.248 15.1316 70.768 19.9956 70.768C21.9156 66.672 23.7716 61.232 25.5636 54.448C27.3556 47.664 29.4676 38.96 31.8996 28.336C32.2196 26.928 32.9876 23.568 34.2036 18.256C35.4836 12.88 36.5716 8.976 37.4676 6.544C32.4116 6.672 28.4116 6.864 25.4676 7.12C22.5876 7.376 19.3876 7.824 15.8676 8.464C16.3156 5.968 18.0756 4.112 21.1476 2.89599C24.2836 1.67999 29.0516 1.07199 35.4516 1.07199C39.6116 1.07199 44.0276 1.296 48.6996 1.744C53.4356 2.192 57.4036 2.64 60.6036 3.088C59.2596 4.432 57.7876 5.328 56.1876 5.776C54.6516 6.224 53.0196 6.44799 51.2916 6.44799C46.2996 6.44799 42.8116 6.48 40.8276 6.544L40.1556 10C36.1876 32.016 33.2436 46.832 31.3236 54.448C30.2356 58.8 29.0516 62.352 27.7716 65.104C26.4916 67.792 24.9876 69.712 23.2596 70.864C26.2676 71.056 29.3716 71.344 32.5716 71.728C37.2436 72.304 41.0836 72.624 44.0916 72.688C41.3396 75.44 37.7236 76.816 33.2436 76.816H28.5396C22.6516 76.88 18.0116 76.976 14.6196 77.104C11.2276 77.296 7.80362 77.744 4.34762 78.448ZM68.6661 14.704C67.4501 14 66.8421 13.104 66.8421 12.016C66.8421 11.824 66.9061 11.536 67.0341 11.152C67.4821 10.192 68.0261 9.2 68.6661 8.17599C69.3701 7.152 69.8181 6.48 70.0101 6.16C70.2021 5.904 70.6821 5.2 71.4501 4.048C72.2181 2.896 72.6981 1.84 72.8901 0.879997C73.5301 0.879997 74.0741 1.168 74.5221 1.744C75.0341 2.256 75.2901 2.864 75.2901 3.568C75.2901 4.4 74.9061 5.424 74.1381 6.64C73.4341 7.792 72.3461 9.424 70.8741 11.536C70.5541 12.048 70.2021 12.56 69.8181 13.072C69.4341 13.584 69.0501 14.128 68.6661 14.704ZM116.327 72.976C114.215 72.976 112.615 72.304 111.527 70.96C110.439 69.68 109.895 68.016 109.895 65.968C109.895 64.24 110.407 61.712 111.431 58.384C111.751 57.296 112.039 56.208 112.295 55.12C112.615 54.032 112.775 53.104 112.775 52.336C112.775 51.184 112.487 50.32 111.911 49.744C111.399 49.168 110.759 48.88 109.991 48.88C108.519 48.88 106.919 49.936 105.191 52.048C103.527 54.096 100.935 57.808 97.4151 63.184C96.5191 64.592 95.2711 66.96 93.6711 70.288L92.8071 72.112C91.7831 72.112 90.6951 71.92 89.5431 71.536C88.4551 71.216 87.9111 70.768 87.9111 70.192C87.9111 69.744 88.4551 68.048 89.5431 65.104C90.8871 61.136 91.9431 57.808 92.7111 55.12C93.5431 52.368 93.9591 50.032 93.9591 48.112C93.9591 45.68 93.1591 44.464 91.5591 44.464C89.7671 44.464 87.4311 45.904 84.5511 48.784C81.7351 51.664 78.9511 55.312 76.1991 59.728C73.4471 64.08 71.3031 68.368 69.7671 72.592C68.8071 72.592 67.7191 72.368 66.5031 71.92C65.2231 71.472 64.5831 71.024 64.5831 70.576C64.5831 70.384 65.0311 68.88 65.9271 66.064C67.3991 61.776 68.6151 57.84 69.5751 54.256C70.5991 50.672 71.1431 47.568 71.2071 44.944C71.6551 44.432 72.2951 43.984 73.1271 43.6C73.9591 43.152 74.7911 42.928 75.6231 42.928C77.3511 42.928 78.2151 43.76 78.2151 45.424C78.2151 47.152 77.3831 50.8 75.7191 56.368C78.8551 51.376 82.2151 47.088 85.7991 43.504C89.4471 39.92 92.8391 38.128 95.9751 38.128C97.8311 38.128 99.1431 38.8 99.9111 40.144C100.743 41.488 101.159 43.248 101.159 45.424C101.159 47.6 100.839 49.968 100.199 52.528C99.5591 55.088 98.8871 57.232 98.1831 58.96C100.615 54.544 103.143 50.992 105.767 48.304C108.391 45.552 111.175 44.176 114.119 44.176C116.039 44.176 117.415 44.752 118.247 45.904C119.143 47.056 119.591 48.528 119.591 50.32C119.591 51.536 119.431 52.848 119.111 54.256C118.791 55.6 118.311 57.264 117.671 59.248C116.583 62.64 116.039 65.008 116.039 66.352C116.039 68.528 116.999 69.616 118.919 69.616C121.287 69.616 123.527 68.176 125.639 65.296C127.751 62.352 129.799 58.736 131.783 54.448L132.935 55.792C131.143 60.528 128.807 64.592 125.927 67.984C123.047 71.312 119.847 72.976 116.327 72.976ZM180.191 78.352C176.607 78.352 173.279 77.712 170.207 76.432C167.135 75.152 164.671 73.2 162.815 70.576C161.023 68.016 160.127 64.88 160.127 61.168C160.127 56.624 161.375 53.36 163.871 51.376C166.367 49.328 169.215 48.304 172.415 48.304C170.687 50.16 169.375 52.208 168.479 54.448C167.583 56.688 167.135 58.928 167.135 61.168C167.135 65.008 168.383 68.208 170.879 70.768C173.439 73.328 177.087 74.608 181.823 74.608C184.831 74.608 187.679 74.064 190.367 72.976C193.119 71.888 195.359 70.288 197.087 68.176C198.815 66.064 199.679 63.536 199.679 60.592C199.679 58.032 199.039 55.792 197.759 53.872C196.479 51.888 194.879 50.224 192.959 48.88C191.039 47.472 188.479 45.808 185.279 43.888C182.015 41.968 179.391 40.304 177.407 38.896C175.487 37.424 173.855 35.664 172.511 33.616C171.167 31.568 170.495 29.2 170.495 26.512C170.495 22.8 171.647 18.96 173.951 14.992C176.255 10.96 179.487 7.6 183.647 4.912C187.871 2.224 192.607 0.879997 197.855 0.879997C201.375 0.879997 203.935 1.744 205.535 3.472C207.135 5.2 207.935 7.536 207.935 10.48C207.935 13.68 207.167 17.264 205.631 21.232C204.095 25.2 202.399 28.656 200.543 31.6C198.431 31.152 197.375 29.776 197.375 27.472C197.375 26.256 197.599 24.88 198.047 23.344C198.559 21.808 199.263 19.888 200.159 17.584C201.119 15.088 201.823 13.072 202.271 11.536C202.783 9.936 203.039 8.528 203.039 7.31199C203.039 5.968 202.623 4.944 201.791 4.23999C201.023 3.536 199.647 3.184 197.663 3.184C193.887 3.184 190.367 4.368 187.103 6.736C183.903 9.04 181.343 11.856 179.423 15.184C177.503 18.512 176.543 21.552 176.543 24.304C176.543 26.352 177.087 28.176 178.175 29.776C179.327 31.376 180.735 32.784 182.399 34C184.063 35.152 186.335 36.528 189.215 38.128C192.671 40.112 195.455 41.904 197.567 43.504C199.679 45.04 201.471 47.024 202.943 49.456C204.479 51.824 205.247 54.64 205.247 57.904C205.247 62.128 203.999 65.776 201.503 68.848C199.071 71.92 195.935 74.256 192.095 75.856C188.255 77.52 184.287 78.352 180.191 78.352ZM219.66 74.512C217.548 74.512 215.852 73.808 214.572 72.4C213.228 71.056 212.556 69.104 212.556 66.544C212.556 62.768 213.9 58.544 216.588 53.872C219.34 49.2 222.796 45.232 226.956 41.968C231.116 38.704 235.18 37.072 239.148 37.072C241.644 37.072 243.724 37.744 245.388 39.088C247.052 40.432 247.884 42.16 247.884 44.272C247.884 45.744 247.468 46.8 246.636 47.44C245.804 48.08 244.652 48.4 243.18 48.4C243.5 47.248 243.66 46.128 243.66 45.04C243.66 43.44 243.276 42.16 242.508 41.2C241.74 40.176 240.556 39.664 238.956 39.664C236.14 39.664 233.164 41.232 230.028 44.368C226.956 47.504 224.364 51.248 222.252 55.6C220.204 59.952 219.18 63.696 219.18 66.832C219.18 69.328 220.044 70.576 221.772 70.576C224.332 70.576 227.34 68.56 230.796 64.528C234.252 60.432 237.964 55.472 241.932 49.648C242.764 49.776 243.596 50.064 244.428 50.512C245.324 50.896 245.772 51.408 245.772 52.048C245.772 52.56 245.452 53.392 244.812 54.544C244.236 55.632 243.884 56.272 243.756 56.464C242.668 58.32 241.804 59.984 241.164 61.456C240.524 62.864 240.204 64.176 240.204 65.392C240.204 66.48 240.46 67.472 240.972 68.368C241.548 69.2 242.38 69.616 243.468 69.616C245.324 69.616 247.66 68.304 250.476 65.68C253.292 62.992 256.076 59.248 258.828 54.448L259.788 55.408C258.444 58.8 256.716 61.84 254.604 64.528C252.492 67.152 250.22 69.2 247.788 70.672C245.356 72.144 243.02 72.88 240.78 72.88C238.54 72.88 236.812 72.208 235.596 70.864C234.444 69.584 233.868 68.016 233.868 66.16C233.868 65.328 233.964 64.4 234.156 63.376C231.276 67.216 228.684 70.032 226.38 71.824C224.14 73.616 221.9 74.512 219.66 74.512ZM264.256 73.648C263.104 73.648 262.144 72.656 261.376 70.672C260.672 68.688 260.32 66.352 260.32 63.664C260.32 57.776 262.112 49.84 265.696 39.856C269.344 29.872 273.472 20.976 278.08 13.168C282.688 5.36 286.336 1.456 289.024 1.456C290.048 1.456 290.816 2.096 291.328 3.376C291.904 4.592 292.192 5.968 292.192 7.504C292.192 10.512 291.104 14.512 288.928 19.504C286.816 24.496 284.032 29.296 280.576 33.904C277.184 38.512 273.696 41.904 270.112 44.08C268.96 46.768 268.064 49.904 267.424 53.488C266.848 57.008 266.56 60.176 266.56 62.992C266.56 64.016 266.624 65.104 266.752 66.256C269.312 58.832 272.192 52.848 275.392 48.304C278.656 43.696 282.272 41.392 286.24 41.392C288.672 41.392 290.496 42.256 291.712 43.984C292.928 45.648 293.536 47.664 293.536 50.032C293.536 51.44 293.344 52.784 292.96 54.064C292.64 55.344 292.096 57.008 291.328 59.056C290.688 60.784 290.208 62.16 289.888 63.184C289.568 64.208 289.408 65.2 289.408 66.16C289.408 67.376 289.664 68.304 290.176 68.944C290.688 69.52 291.392 69.808 292.288 69.808C294.464 69.808 297.024 68.304 299.968 65.296C302.912 62.224 305.344 58.608 307.264 54.448L308.512 55.6C306.4 60.464 303.68 64.464 300.352 67.6C297.088 70.736 293.664 72.304 290.08 72.304C287.968 72.304 286.336 71.728 285.184 70.576C284.032 69.488 283.456 68.048 283.456 66.256C283.456 64.848 283.936 62.576 284.896 59.44C285.92 55.984 286.432 53.424 286.432 51.76C286.432 50.16 286.08 49.008 285.376 48.304C284.736 47.536 283.872 47.152 282.784 47.152C280.416 47.152 278.336 48.56 276.544 51.376C274.816 54.128 272.928 58.032 270.88 63.088C269.344 66.8 268.128 69.488 267.232 71.152C266.336 72.816 265.344 73.648 264.256 73.648ZM271.36 40.336C274.112 38.16 276.832 35.024 279.52 30.928C282.272 26.768 284.512 22.672 286.24 18.64C288.032 14.544 288.928 11.664 288.928 10C288.928 9.488 288.8 9.232 288.544 9.232C287.84 9.232 286.368 10.832 284.128 14.032C281.952 17.168 279.648 21.136 277.216 25.936C274.784 30.736 272.832 35.536 271.36 40.336ZM326.713 28.528C325.561 28.528 324.601 28.272 323.833 27.76C323.129 27.184 322.777 26.384 322.777 25.36C322.777 24.08 323.545 22.928 325.081 21.904C326.617 20.88 328.185 20.368 329.785 20.368C331.897 20.368 332.953 21.36 332.953 23.344C332.953 24.56 332.281 25.744 330.937 26.896C329.657 27.984 328.249 28.528 326.713 28.528ZM315.193 72.496C312.825 72.496 311.001 71.728 309.721 70.192C308.441 68.72 307.801 66.8 307.801 64.432C307.801 61.936 308.505 58.48 309.913 54.064C311.385 49.648 313.177 45.776 315.289 42.448C317.465 39.12 319.577 37.456 321.625 37.456C322.201 37.456 322.681 37.648 323.065 38.032C323.513 38.416 323.737 38.928 323.737 39.568C323.737 40.464 322.713 42.608 320.665 46C318.553 49.52 316.857 52.688 315.577 55.504C314.361 58.256 313.753 60.88 313.753 63.376C313.753 65.616 314.105 67.152 314.809 67.984C315.577 68.752 316.793 69.136 318.457 69.136C323.449 69.136 328.377 64.24 333.241 54.448L334.105 55.408C332.313 60.784 329.657 64.976 326.137 67.984C322.681 70.992 319.033 72.496 315.193 72.496ZM342.285 72.88C339.661 72.88 337.709 71.984 336.429 70.192C335.213 68.4 334.605 66 334.605 62.992C334.605 57.232 336.589 49.424 340.557 39.568C344.525 29.648 348.941 20.72 353.805 12.784C358.733 4.848 362.285 0.879997 364.461 0.879997C365.357 0.879997 366.093 1.68 366.669 3.27999C367.309 4.816 367.629 6.384 367.629 7.984C367.629 10.928 366.413 15.28 363.981 21.04C361.613 26.736 358.477 32.528 354.573 38.416C350.669 44.304 346.509 49.072 342.093 52.72C341.261 56.432 340.845 59.664 340.845 62.416C340.845 67.344 342.253 69.808 345.069 69.808C347.437 69.808 349.837 68.304 352.269 65.296C354.765 62.288 356.973 58.672 358.893 54.448L360.333 55.216C354.829 66.992 348.813 72.88 342.285 72.88ZM342.957 49.456C346.477 45.936 349.901 41.52 353.229 36.208C356.621 30.832 359.373 25.712 361.485 20.848C363.597 15.92 364.653 12.368 364.653 10.192C364.653 9.168 364.429 8.65599 363.981 8.65599C363.085 8.65599 361.229 10.864 358.413 15.28C355.661 19.632 352.813 24.976 349.869 31.312C346.925 37.648 344.621 43.696 342.957 49.456ZM67.562 114.692C66.77 114.692 66.134 114.428 65.654 113.9C65.15 113.396 64.898 112.664 64.898 111.704C64.898 110.288 65.402 108.704 66.41 106.952C67.442 105.2 68.738 103.712 70.298 102.488C71.858 101.264 73.382 100.652 74.87 100.652C75.806 100.652 76.586 100.904 77.21 101.408C77.834 101.912 78.146 102.56 78.146 103.352C78.146 103.904 77.99 104.3 77.678 104.54C77.366 104.78 76.934 104.9 76.382 104.9C76.502 104.468 76.562 104.048 76.562 103.64C76.562 103.04 76.418 102.56 76.13 102.2C75.842 101.816 75.398 101.624 74.798 101.624C73.742 101.624 72.626 102.212 71.45 103.388C70.298 104.564 69.326 105.968 68.534 107.6C67.766 109.232 67.382 110.636 67.382 111.812C67.382 112.748 67.706 113.216 68.354 113.216C69.314 113.216 70.442 112.46 71.738 110.948C73.034 109.412 74.426 107.552 75.914 105.368C76.226 105.416 76.538 105.524 76.85 105.692C77.186 105.836 77.354 106.028 77.354 106.268C77.354 106.46 77.234 106.772 76.994 107.204C76.778 107.612 76.646 107.852 76.598 107.924C76.19 108.62 75.866 109.244 75.626 109.796C75.386 110.324 75.266 110.816 75.266 111.272C75.266 111.68 75.362 112.052 75.554 112.388C75.77 112.7 76.082 112.856 76.49 112.856C77.186 112.856 78.062 112.364 79.118 111.38C80.174 110.372 81.218 108.968 82.25 107.168L82.61 107.528C82.106 108.8 81.458 109.94 80.666 110.948C79.874 111.932 79.022 112.7 78.11 113.252C77.198 113.804 76.322 114.08 75.482 114.08C74.642 114.08 73.994 113.828 73.538 113.324C73.106 112.844 72.89 112.256 72.89 111.56C72.89 111.248 72.926 110.9 72.998 110.516C71.918 111.956 70.946 113.012 70.082 113.684C69.242 114.356 68.402 114.692 67.562 114.692ZM104.617 114.404C103.321 114.404 102.673 113.24 102.673 110.912C102.673 110.048 102.757 108.968 102.925 107.672C101.965 109.592 101.005 111.14 100.045 112.316C99.1092 113.492 98.1492 114.08 97.1652 114.08C96.3972 114.08 95.7492 113.72 95.2212 113C94.7172 112.304 94.4652 111.452 94.4652 110.444C94.4652 109.556 94.6452 108.464 95.0052 107.168C95.3892 105.848 95.8332 104.708 96.3372 103.748C96.8652 102.764 97.2972 102.272 97.6332 102.272C97.8252 102.272 98.0892 102.344 98.4252 102.488C98.7852 102.632 98.9652 102.8 98.9652 102.992C98.4612 103.76 97.9332 104.9 97.3812 106.412C96.8292 107.9 96.5532 109.172 96.5532 110.228C96.5532 110.78 96.6372 111.32 96.8052 111.848C96.9732 112.376 97.3092 112.64 97.8132 112.64C98.5572 112.64 99.3852 112.004 100.297 110.732C101.209 109.436 102.181 107.78 103.213 105.764C103.405 104.756 103.561 104.036 103.681 103.604C103.825 103.148 103.957 102.86 104.077 102.74C104.221 102.596 104.413 102.524 104.653 102.524C104.965 102.524 105.217 102.596 105.409 102.74C105.601 102.86 105.697 103.052 105.697 103.316C105.697 103.388 105.673 103.52 105.625 103.712C105.361 104.6 105.121 105.776 104.905 107.24C104.713 108.704 104.617 110.036 104.617 111.236C104.617 112.412 104.881 113 105.409 113C106.081 113 106.957 112.256 108.037 110.768C109.117 109.256 110.101 107.54 110.989 105.62C110.989 102.572 111.589 101.048 112.789 101.048C113.197 101.048 113.509 101.204 113.725 101.516C113.965 101.804 114.085 102.104 114.085 102.416C114.085 102.656 113.965 102.992 113.725 103.424C113.437 103.976 113.209 104.528 113.041 105.08C112.897 105.608 112.825 106.328 112.825 107.24C112.825 108.032 112.933 108.692 113.149 109.22C113.389 109.724 113.845 109.976 114.517 109.976C115.045 109.976 115.537 109.772 115.993 109.364C116.449 108.956 116.905 108.272 117.361 107.312L117.829 107.672C116.965 109.688 115.777 110.696 114.265 110.696C113.521 110.696 112.885 110.444 112.357 109.94C111.853 109.436 111.481 108.68 111.241 107.672C110.233 109.544 109.129 111.14 107.929 112.46C106.753 113.756 105.649 114.404 104.617 114.404ZM122.372 114.584C120.956 114.584 119.864 114.188 119.096 113.396C118.352 112.628 117.98 111.632 117.98 110.408C117.98 108.992 118.448 107.468 119.384 105.836C120.32 104.204 121.496 102.836 122.912 101.732C124.352 100.604 125.756 100.04 127.124 100.04C128.612 100.04 129.356 100.772 129.356 102.236C129.356 103.412 128.912 104.516 128.024 105.548C127.136 106.556 125.996 107.384 124.604 108.032C123.212 108.68 121.82 109.076 120.428 109.22C120.332 109.628 120.284 110.06 120.284 110.516C120.284 111.38 120.5 112.1 120.932 112.676C121.364 113.252 122.096 113.54 123.128 113.54C124.592 113.54 126.068 112.928 127.556 111.704C129.044 110.48 130.256 108.968 131.192 107.168L131.624 107.492C130.664 109.628 129.332 111.344 127.628 112.64C125.924 113.936 124.172 114.584 122.372 114.584ZM120.608 108.536C121.616 108.176 122.672 107.672 123.776 107.024C124.88 106.376 125.816 105.62 126.584 104.756C127.376 103.868 127.772 102.944 127.772 101.984C127.772 101.696 127.712 101.492 127.592 101.372C127.496 101.228 127.304 101.156 127.016 101.156C126.272 101.156 125.456 101.528 124.568 102.272C123.704 103.016 122.9 103.964 122.156 105.116C121.436 106.268 120.92 107.408 120.608 108.536ZM135.62 115.628C134.396 115.628 133.472 115.22 132.848 114.404C132.224 113.612 131.912 112.508 131.912 111.092C131.912 108.812 132.632 105.764 134.072 101.948C135.512 98.132 137.132 94.736 138.932 91.76C140.756 88.784 142.148 87.296 143.108 87.296C143.468 87.296 143.744 87.536 143.936 88.016C144.152 88.472 144.26 88.988 144.26 89.564C144.26 90.692 143.864 92.192 143.072 94.064C142.28 95.936 141.248 97.736 139.976 99.464C138.704 101.192 137.396 102.464 136.052 103.28C135.74 103.856 135.368 104.936 134.936 106.52C134.528 108.104 134.324 109.556 134.324 110.876C134.324 113.132 134.984 114.26 136.304 114.26C137 114.26 137.72 113.972 138.464 113.396C139.208 112.844 139.808 112.124 140.264 111.236C139.424 110.804 138.776 110.168 138.32 109.328C137.864 108.464 137.636 107.552 137.636 106.592C137.636 105.464 137.924 104.552 138.5 103.856C139.1 103.136 139.82 102.776 140.66 102.776C141.356 102.776 141.908 103.064 142.316 103.64C142.724 104.216 142.928 105.032 142.928 106.088C142.928 107.672 142.508 109.304 141.668 110.984C141.956 111.056 142.268 111.092 142.604 111.092C143.732 111.092 144.632 110.732 145.304 110.012C146 109.292 146.636 108.344 147.212 107.168L147.644 107.636C147.02 109.172 146.264 110.24 145.376 110.84C144.512 111.44 143.552 111.74 142.496 111.74C142.088 111.74 141.704 111.704 141.344 111.632C140.624 112.832 139.784 113.792 138.824 114.512C137.864 115.256 136.796 115.628 135.62 115.628ZM136.448 101.876C137.48 101.06 138.5 99.884 139.508 98.348C140.54 96.788 141.38 95.252 142.028 93.74C142.7 92.204 143.036 91.124 143.036 90.5C143.036 90.308 142.988 90.212 142.892 90.212C142.628 90.212 142.064 90.824 141.2 92.048C140.36 93.272 139.484 94.796 138.572 96.62C137.66 98.42 136.952 100.172 136.448 101.876ZM140.624 110.516C141.176 109.34 141.452 108.128 141.452 106.88C141.452 106.064 141.332 105.416 141.092 104.936C140.876 104.432 140.6 104.18 140.264 104.18C139.904 104.18 139.58 104.432 139.292 104.936C139.028 105.44 138.896 106.052 138.896 106.772C138.896 107.492 139.04 108.2 139.328 108.896C139.616 109.592 140.048 110.132 140.624 110.516ZM161.516 114.08C160.82 114.08 160.196 113.816 159.644 113.288C159.092 112.784 158.816 112.04 158.816 111.056C158.816 109.736 159.32 108.2 160.328 106.448C161.336 104.672 162.596 103.16 164.108 101.912C165.62 100.664 167.084 100.04 168.5 100.04C169.556 100.04 170.084 100.412 170.084 101.156C170.084 101.252 170.06 101.42 170.012 101.66C169.772 101.3 169.316 101.12 168.644 101.12C167.444 101.12 166.28 101.696 165.152 102.848C164.024 103.976 163.1 105.308 162.38 106.844C161.684 108.38 161.336 109.64 161.336 110.624C161.336 111.152 161.444 111.572 161.66 111.884C161.9 112.196 162.224 112.352 162.632 112.352C163.28 112.352 164.072 111.944 165.008 111.128C165.944 110.288 166.892 109.112 167.852 107.6C168.812 106.088 169.664 104.372 170.408 102.452C172.28 97.604 173.84 93.836 175.088 91.148C176.36 88.436 177.428 87.08 178.292 87.08C178.484 87.08 178.652 87.164 178.796 87.332C178.94 87.476 179.012 87.668 179.012 87.908C179.012 88.268 178.82 88.892 178.436 89.78C178.052 90.644 177.428 91.988 176.564 93.812C174.788 97.508 173.372 100.712 172.316 103.424C171.26 106.112 170.732 108.464 170.732 110.48C170.732 111.272 170.768 111.812 170.84 112.1C170.936 112.364 171.176 112.496 171.56 112.496C172.064 112.496 172.652 112.28 173.324 111.848C174.02 111.392 174.704 110.768 175.376 109.976C176.048 109.16 176.624 108.224 177.104 107.168L177.536 107.492C177.08 108.692 176.456 109.784 175.664 110.768C174.872 111.752 174.02 112.52 173.108 113.072C172.22 113.648 171.368 113.936 170.552 113.936C169.736 113.936 169.136 113.672 168.752 113.144C168.368 112.616 168.176 111.98 168.176 111.236C168.176 110.42 168.404 109.136 168.86 107.384C167.636 109.4 166.364 111.02 165.044 112.244C163.748 113.468 162.572 114.08 161.516 114.08ZM182.095 114.584C180.679 114.584 179.587 114.188 178.819 113.396C178.075 112.628 177.703 111.632 177.703 110.408C177.703 108.992 178.171 107.468 179.107 105.836C180.043 104.204 181.219 102.836 182.635 101.732C184.075 100.604 185.479 100.04 186.847 100.04C188.335 100.04 189.079 100.772 189.079 102.236C189.079 103.412 188.635 104.516 187.747 105.548C186.859 106.556 185.719 107.384 184.327 108.032C182.935 108.68 181.543 109.076 180.151 109.22C180.055 109.628 180.007 110.06 180.007 110.516C180.007 111.38 180.223 112.1 180.655 112.676C181.087 113.252 181.819 113.54 182.851 113.54C184.315 113.54 185.791 112.928 187.279 111.704C188.767 110.48 189.979 108.968 190.915 107.168L191.347 107.492C190.387 109.628 189.055 111.344 187.351 112.64C185.647 113.936 183.895 114.584 182.095 114.584ZM180.331 108.536C181.339 108.176 182.395 107.672 183.499 107.024C184.603 106.376 185.539 105.62 186.307 104.756C187.099 103.868 187.495 102.944 187.495 101.984C187.495 101.696 187.435 101.492 187.315 101.372C187.219 101.228 187.027 101.156 186.739 101.156C185.995 101.156 185.179 101.528 184.291 102.272C183.427 103.016 182.623 103.964 181.879 105.116C181.159 106.268 180.643 107.408 180.331 108.536ZM194.336 114.404C193.616 114.404 193.1 114.056 192.788 113.36C192.5 112.688 192.356 111.716 192.356 110.444C192.356 109.988 192.428 108.416 192.572 105.728C192.62 105.008 192.704 104.552 192.824 104.36C192.944 104.144 193.244 104.036 193.724 104.036C194.132 104.036 194.384 104.12 194.48 104.288C194.6 104.432 194.66 104.732 194.66 105.188C194.66 105.668 194.612 106.556 194.516 107.852C194.396 109.004 194.336 110.048 194.336 110.984C194.336 111.704 194.396 112.22 194.516 112.532C194.636 112.844 194.852 113 195.164 113C195.956 113 196.916 112.196 198.044 110.588C199.172 108.956 200.192 107.132 201.104 105.116C201.152 103.604 201.308 102.548 201.572 101.948C201.86 101.348 202.256 101.048 202.76 101.048C203.168 101.048 203.48 101.204 203.696 101.516C203.936 101.804 204.056 102.104 204.056 102.416C204.056 102.656 203.936 102.992 203.696 103.424C203.408 103.976 203.18 104.528 203.012 105.08C202.868 105.608 202.796 106.328 202.796 107.24C202.796 108.032 202.904 108.692 203.12 109.22C203.36 109.724 203.816 109.976 204.488 109.976C205.016 109.976 205.508 109.772 205.964 109.364C206.42 108.956 206.876 108.272 207.332 107.312L207.8 107.672C206.936 109.688 205.748 110.696 204.236 110.696C203.42 110.696 202.748 110.408 202.22 109.832C201.716 109.232 201.38 108.356 201.212 107.204C200.228 109.172 199.1 110.864 197.828 112.28C196.58 113.696 195.416 114.404 194.336 114.404ZM212.344 114.584C210.928 114.584 209.836 114.188 209.068 113.396C208.324 112.628 207.952 111.632 207.952 110.408C207.952 108.992 208.42 107.468 209.356 105.836C210.292 104.204 211.468 102.836 212.884 101.732C214.324 100.604 215.728 100.04 217.096 100.04C218.584 100.04 219.328 100.772 219.328 102.236C219.328 103.412 218.884 104.516 217.996 105.548C217.108 106.556 215.968 107.384 214.576 108.032C213.184 108.68 211.792 109.076 210.4 109.22C210.304 109.628 210.256 110.06 210.256 110.516C210.256 111.38 210.472 112.1 210.904 112.676C211.336 113.252 212.068 113.54 213.1 113.54C214.564 113.54 216.04 112.928 217.528 111.704C219.016 110.48 220.228 108.968 221.164 107.168L221.596 107.492C220.636 109.628 219.304 111.344 217.6 112.64C215.896 113.936 214.144 114.584 212.344 114.584ZM210.58 108.536C211.588 108.176 212.644 107.672 213.748 107.024C214.852 106.376 215.788 105.62 216.556 104.756C217.348 103.868 217.744 102.944 217.744 101.984C217.744 101.696 217.684 101.492 217.564 101.372C217.468 101.228 217.276 101.156 216.988 101.156C216.244 101.156 215.428 101.528 214.54 102.272C213.676 103.016 212.872 103.964 212.128 105.116C211.408 106.268 210.892 107.408 210.58 108.536ZM225.232 114.08C224.248 114.08 223.516 113.744 223.036 113.072C222.58 112.4 222.352 111.5 222.352 110.372C222.352 108.212 223.096 105.284 224.584 101.588C226.072 97.868 227.728 94.52 229.552 91.544C231.4 88.568 232.732 87.08 233.548 87.08C233.884 87.08 234.16 87.38 234.376 87.98C234.616 88.556 234.736 89.144 234.736 89.744C234.736 90.848 234.28 92.48 233.368 94.64C232.48 96.776 231.304 98.948 229.84 101.156C228.376 103.364 226.816 105.152 225.16 106.52C224.848 107.912 224.692 109.124 224.692 110.156C224.692 112.004 225.22 112.928 226.276 112.928C227.164 112.928 228.064 112.364 228.976 111.236C229.912 110.108 230.74 108.752 231.46 107.168L232 107.456C229.936 111.872 227.68 114.08 225.232 114.08ZM225.484 105.296C226.804 103.976 228.088 102.32 229.336 100.328C230.608 98.312 231.64 96.392 232.432 94.568C233.224 92.72 233.62 91.388 233.62 90.572C233.62 90.188 233.536 89.996 233.368 89.996C233.032 89.996 232.336 90.824 231.28 92.48C230.248 94.112 229.18 96.116 228.076 98.492C226.972 100.868 226.108 103.136 225.484 105.296ZM235.036 114.152C234.052 114.152 233.332 113.852 232.876 113.252C232.42 112.652 232.192 111.86 232.192 110.876C232.192 109.892 232.396 108.86 232.804 107.78C233.212 106.7 233.74 105.8 234.388 105.08C235.036 104.36 235.684 104 236.332 104C236.548 104 236.8 104.06 237.088 104.18C236.8 104.42 236.452 104.948 236.044 105.764C235.636 106.58 235.276 107.456 234.964 108.392C234.676 109.304 234.532 110.048 234.532 110.624C234.532 111.992 234.964 112.676 235.828 112.676C236.332 112.676 236.932 112.412 237.628 111.884C238.324 111.356 239.008 110.66 239.68 109.796C239.008 109.244 238.48 108.524 238.096 107.636C237.736 106.748 237.556 105.824 237.556 104.864C237.556 103.616 237.868 102.548 238.492 101.66C239.14 100.772 240.004 100.328 241.084 100.328C241.996 100.328 242.632 100.58 242.992 101.084C243.376 101.564 243.568 102.236 243.568 103.1C243.568 104.012 243.34 105.044 242.884 106.196C242.452 107.324 241.876 108.428 241.156 109.508C241.588 109.748 242.044 109.868 242.524 109.868C243.22 109.868 243.94 109.664 244.684 109.256C245.428 108.824 245.992 108.164 246.376 107.276L246.808 107.636C246.352 108.692 245.704 109.472 244.864 109.976C244.024 110.48 243.16 110.732 242.272 110.732C241.624 110.732 241.048 110.612 240.544 110.372C239.68 111.5 238.756 112.412 237.772 113.108C236.812 113.804 235.9 114.152 235.036 114.152ZM240.328 108.86C240.952 107.924 241.456 106.976 241.84 106.016C242.224 105.032 242.416 104.132 242.416 103.316C242.416 102.644 242.308 102.14 242.092 101.804C241.9 101.468 241.648 101.3 241.336 101.3C241 101.3 240.652 101.468 240.292 101.804C239.956 102.116 239.668 102.56 239.428 103.136C239.212 103.688 239.104 104.3 239.104 104.972C239.104 105.716 239.2 106.436 239.392 107.132C239.608 107.804 239.92 108.38 240.328 108.86ZM245.232 123.08C245.04 123.08 244.86 122.984 244.692 122.792C244.524 122.6 244.38 122.384 244.26 122.144C244.14 121.904 244.092 121.76 244.116 121.712C244.452 120.56 244.86 119.288 245.34 117.896C245.868 116.36 246.312 114.956 246.672 113.684C247.032 112.412 247.404 110.696 247.788 108.536C248.196 106.352 248.604 103.568 249.012 100.184C249.036 99.944 249.084 99.788 249.156 99.716C249.252 99.62 249.432 99.572 249.696 99.572C250.272 99.572 250.704 99.74 250.992 100.076C251.28 100.388 251.424 100.772 251.424 101.228C251.424 101.9 251.148 103.52 250.596 106.088C251.34 104.648 252.24 103.412 253.296 102.38C254.376 101.324 255.552 100.796 256.824 100.796C257.88 100.796 258.744 101.18 259.416 101.948C260.112 102.692 260.46 103.676 260.46 104.9C260.46 106.172 260.088 107.528 259.344 108.968C258.6 110.384 257.568 111.572 256.248 112.532C254.952 113.468 253.524 113.936 251.964 113.936C251.364 113.936 250.86 113.864 250.452 113.72C250.068 113.6 249.876 113.456 249.876 113.288C249.876 113.216 249.96 113.168 250.128 113.144C250.32 113.12 250.536 113.108 250.776 113.108C252.024 113.108 253.212 112.712 254.34 111.92C255.468 111.128 256.38 110.12 257.076 108.896C257.772 107.672 258.12 106.448 258.12 105.224C258.12 104.408 257.94 103.748 257.58 103.244C257.244 102.716 256.74 102.452 256.068 102.452C255.3 102.452 254.508 102.776 253.692 103.424C252.9 104.048 252.18 104.816 251.532 105.728C250.908 106.616 250.428 107.456 250.092 108.248C249.204 112.04 248.34 115.328 247.5 118.112C246.684 120.92 246.072 122.516 245.664 122.9C245.544 123.02 245.4 123.08 245.232 123.08ZM267.251 114.584C265.835 114.584 264.743 114.188 263.975 113.396C263.231 112.628 262.859 111.632 262.859 110.408C262.859 108.992 263.327 107.468 264.263 105.836C265.199 104.204 266.375 102.836 267.791 101.732C269.231 100.604 270.635 100.04 272.003 100.04C273.491 100.04 274.235 100.772 274.235 102.236C274.235 103.412 273.791 104.516 272.903 105.548C272.015 106.556 270.875 107.384 269.483 108.032C268.091 108.68 266.699 109.076 265.307 109.22C265.211 109.628 265.163 110.06 265.163 110.516C265.163 111.38 265.379 112.1 265.811 112.676C266.243 113.252 266.975 113.54 268.007 113.54C269.471 113.54 270.947 112.928 272.435 111.704C273.923 110.48 275.135 108.968 276.071 107.168L276.503 107.492C275.543 109.628 274.211 111.344 272.507 112.64C270.803 113.936 269.051 114.584 267.251 114.584ZM265.487 108.536C266.495 108.176 267.551 107.672 268.655 107.024C269.759 106.376 270.695 105.62 271.463 104.756C272.255 103.868 272.651 102.944 272.651 101.984C272.651 101.696 272.591 101.492 272.471 101.372C272.375 101.228 272.183 101.156 271.895 101.156C271.151 101.156 270.335 101.528 269.447 102.272C268.583 103.016 267.779 103.964 267.035 105.116C266.315 106.268 265.799 107.408 265.487 108.536ZM283.379 113.936C282.563 113.936 281.915 113.72 281.435 113.288C280.979 112.856 280.751 112.292 280.751 111.596C280.751 110.78 281.099 109.604 281.795 108.068C282.107 107.276 282.335 106.652 282.479 106.196C282.647 105.716 282.731 105.272 282.731 104.864C282.731 104.264 282.587 103.796 282.299 103.46C282.035 103.1 281.735 102.812 281.399 102.596C281.063 102.356 280.835 102.2 280.715 102.128C280.187 103.472 279.623 104.792 279.023 106.088C278.423 107.36 277.919 108.344 277.511 109.04L277.187 108.428C278.339 106.196 279.311 103.916 280.103 101.588C279.863 101.348 279.743 101.06 279.743 100.724C279.743 100.292 279.827 99.884 279.995 99.5C280.187 99.116 280.403 98.816 280.643 98.6C280.907 98.384 281.111 98.276 281.255 98.276C281.591 98.276 281.759 98.564 281.759 99.14C281.759 99.236 281.699 99.452 281.579 99.788C281.459 100.124 281.387 100.352 281.363 100.472C281.363 100.712 281.459 100.94 281.651 101.156C281.867 101.348 282.203 101.6 282.659 101.912C283.403 102.44 283.979 102.968 284.387 103.496C284.819 104 285.035 104.66 285.035 105.476C285.035 106.004 284.951 106.532 284.783 107.06C284.615 107.564 284.363 108.236 284.027 109.076C283.499 110.228 283.235 111.056 283.235 111.56C283.235 112.28 283.595 112.64 284.315 112.64C285.035 112.64 285.803 112.352 286.619 111.776C287.459 111.2 288.227 110.492 288.923 109.652C289.619 108.788 290.123 107.996 290.435 107.276L290.903 107.636C290.159 109.292 289.079 110.756 287.663 112.028C286.247 113.3 284.819 113.936 283.379 113.936ZM292.907 113.36C292.571 113.36 292.295 113.276 292.079 113.108C291.863 112.94 291.755 112.7 291.755 112.388C291.755 112.004 291.983 111.668 292.439 111.38C292.895 111.068 293.363 110.912 293.843 110.912C294.467 110.912 294.779 111.2 294.779 111.776C294.779 112.136 294.575 112.496 294.167 112.856C293.783 113.192 293.363 113.36 292.907 113.36Z" fill="white"/>
</g>
<defs>
<filter id="filter0_d" x="0.347626" y="0.880005" width="371.281" height="130.2" filterUnits="userSpaceOnUse" color-interpolation-filters="sRGB">
<feFlood flood-opacity="0" result="BackgroundImageFix"/>
<feColorMatrix in="SourceAlpha" type="matrix" values="0 0 0 0 0 0 0 0 0 0 0 0 0 0 0 0 0 0 127 0"/>
<feOffset dy="4"/>
<feGaussianBlur stdDeviation="2"/>
<feColorMatrix type="matrix" values="0 0 0 0 0 0 0 0 0 0 0 0 0 0 0 0 0 0 0.25 0"/>
<feBlend mode="normal" in2="BackgroundImageFix" result="effect1_dropShadow"/>
<feBlend mode="normal" in="SourceGraphic" in2="effect1_dropShadow" result="shape"/>
</filter>
</defs>
</svg>
