<svg width="1440" height="174" viewBox="0 0 1440 174" fill="none" xmlns="http://www.w3.org/2000/svg">
<path fill-rule="evenodd" clip-rule="evenodd" d="M0 0L40 16.1028C80 32.2057 160 64.4113 240 93.4859C320 122.56 400 148.057 480 138.663C560 128.823 640 83.6452 720 55.018C800 25.9434 880 12.9717 960 19.2339C1040 25.9434 1120 51.4396 1200 64.4113C1280 77.383 1360 77.383 1400 77.383H1440V174H1400C1360 174 1280 174 1200 174C1120 174 1040 174 960 174C880 174 800 174 720 174C640 174 560 174 480 174C400 174 320 174 240 174C160 174 80 174 40 174H0V0Z" fill="#E4E4E4"/>
</svg>
