<svg width="1440" height="183" viewBox="0 0 1440 183" fill="none" xmlns="http://www.w3.org/2000/svg">
<path fill-rule="evenodd" clip-rule="evenodd" d="M0 160.125L39.6 152.5C80.4 144.875 159.6 129.625 240 106.75C320.4 83.875 399.6 53.375 480 57.1875C560.4 61 639.6 99.125 720 118.188C800.4 137.25 879.6 137.25 960 114.375C1040.4 91.5 1119.6 45.75 1200 22.875C1280.4 0 1359.6 0 1400.4 0H1440V183H1400.4C1359.6 183 1280.4 183 1200 183C1119.6 183 1040.4 183 960 183C879.6 183 800.4 183 720 183C639.6 183 560.4 183 480 183C399.6 183 320.4 183 240 183C159.6 183 80.4 183 39.6 183H0V160.125Z" fill="#2E7B73" fill-opacity="0.64"/>
</svg>
